<svg xmlns="http://www.w3.org/2000/svg" xmlns:xlink="http://www.w3.org/1999/xlink" version="1.1" width="256" height="256" viewBox="0 0 256 256" xml:space="preserve">

<defs>
</defs>
<g style="stroke: none; stroke-width: 0; stroke-dasharray: none; stroke-linecap: butt; stroke-linejoin: miter; stroke-miterlimit: 10; fill: none; fill-rule: nonzero; opacity: 1;" transform="translate(1.4065934065934016 1.4065934065934016) scale(2.81 2.81)" >
	<path d="M 56.368 22.71 c 0 -6.278 -5.09 -11.368 -11.368 -11.368 s -11.368 5.09 -11.368 11.368 H 56.368" style="stroke: none; stroke-width: 1; stroke-dasharray: none; stroke-linecap: butt; stroke-linejoin: miter; stroke-miterlimit: 10; fill: rgb(253,182,47); fill-rule: nonzero; opacity: 1;" transform=" matrix(1 0 0 1 0 0) " stroke-linecap="round" />
	<polygon points="77.63,49.52 12.37,49.52 22.68,29.29 67.32,29.29 " style="stroke: none; stroke-width: 1; stroke-dasharray: none; stroke-linecap: butt; stroke-linejoin: miter; stroke-miterlimit: 10; fill: rgb(67,152,209); fill-rule: nonzero; opacity: 1;" transform="  matrix(1 0 0 1 0 0) "/>
	<rect x="12.37" y="49.52" rx="0" ry="0" width="65.25" height="39.48" style="stroke: none; stroke-width: 1; stroke-dasharray: none; stroke-linecap: butt; stroke-linejoin: miter; stroke-miterlimit: 10; fill: rgb(209,209,209); fill-rule: nonzero; opacity: 1;" transform=" matrix(1 0 0 1 0 0) "/>
	<rect x="37.53" y="61.02" rx="0" ry="0" width="14.95" height="27.98" style="stroke: none; stroke-width: 1; stroke-dasharray: none; stroke-linecap: butt; stroke-linejoin: miter; stroke-miterlimit: 10; fill: rgb(178,178,178); fill-rule: nonzero; opacity: 1;" transform=" matrix(1 0 0 1 0 0) "/>
	<rect x="58.92" y="61.02" rx="0" ry="0" width="12.1" height="15.2" style="stroke: none; stroke-width: 1; stroke-dasharray: none; stroke-linecap: butt; stroke-linejoin: miter; stroke-miterlimit: 10; fill: rgb(249,249,249); fill-rule: nonzero; opacity: 1;" transform=" matrix(1 0 0 1 0 0) "/>
	<rect x="18.98" y="61.02" rx="0" ry="0" width="12.1" height="15.2" style="stroke: none; stroke-width: 1; stroke-dasharray: none; stroke-linecap: butt; stroke-linejoin: miter; stroke-miterlimit: 10; fill: rgb(249,249,249); fill-rule: nonzero; opacity: 1;" transform=" matrix(1 0 0 1 0 0) "/>
	<path d="M 77.627 50.525 H 12.373 c -0.348 0 -0.671 -0.181 -0.853 -0.478 c -0.182 -0.297 -0.196 -0.666 -0.039 -0.977 l 10.31 -20.234 c 0.171 -0.335 0.515 -0.546 0.891 -0.546 h 44.635 c 0.376 0 0.721 0.211 0.891 0.546 l 10.31 20.234 c 0.158 0.311 0.144 0.68 -0.038 0.977 S 77.975 50.525 77.627 50.525 z M 14.004 48.525 h 61.991 l -9.291 -18.234 H 23.295 L 14.004 48.525 z" style="stroke: none; stroke-width: 1; stroke-dasharray: none; stroke-linecap: butt; stroke-linejoin: miter; stroke-miterlimit: 10; fill: rgb(0,0,0); fill-rule: nonzero; opacity: 1;" transform=" matrix(1 0 0 1 0 0) " stroke-linecap="round" />
	<path d="M 45 50.525 c -0.552 0 -1 -0.447 -1 -1 V 29.292 c 0 -0.552 0.448 -1 1 -1 s 1 0.448 1 1 v 20.234 C 46 50.078 45.552 50.525 45 50.525 z" style="stroke: none; stroke-width: 1; stroke-dasharray: none; stroke-linecap: butt; stroke-linejoin: miter; stroke-miterlimit: 10; fill: rgb(0,0,0); fill-rule: nonzero; opacity: 1;" transform=" matrix(1 0 0 1 0 0) " stroke-linecap="round" />
	<path d="M 28.505 50.525 c -0.082 0 -0.165 -0.01 -0.248 -0.031 c -0.535 -0.136 -0.858 -0.681 -0.722 -1.216 l 5.155 -20.234 c 0.137 -0.535 0.679 -0.857 1.216 -0.722 c 0.535 0.137 0.858 0.681 0.722 1.216 l -5.155 20.234 C 29.358 50.225 28.952 50.525 28.505 50.525 z" style="stroke: none; stroke-width: 1; stroke-dasharray: none; stroke-linecap: butt; stroke-linejoin: miter; stroke-miterlimit: 10; fill: rgb(0,0,0); fill-rule: nonzero; opacity: 1;" transform=" matrix(1 0 0 1 0 0) " stroke-linecap="round" />
	<path d="M 61.494 50.525 c -0.446 0 -0.853 -0.301 -0.968 -0.753 l -5.154 -20.234 c -0.137 -0.536 0.187 -1.08 0.722 -1.216 c 0.535 -0.135 1.079 0.187 1.216 0.722 l 5.154 20.234 c 0.137 0.535 -0.187 1.08 -0.722 1.216 C 61.659 50.516 61.576 50.525 61.494 50.525 z" style="stroke: none; stroke-width: 1; stroke-dasharray: none; stroke-linecap: butt; stroke-linejoin: miter; stroke-miterlimit: 10; fill: rgb(0,0,0); fill-rule: nonzero; opacity: 1;" transform=" matrix(1 0 0 1 0 0) " stroke-linecap="round" />
	<path d="M 72.473 40.408 H 17.527 c -0.552 0 -1 -0.448 -1 -1 s 0.448 -1 1 -1 h 54.945 c 0.553 0 1 0.448 1 1 S 73.025 40.408 72.473 40.408 z" style="stroke: none; stroke-width: 1; stroke-dasharray: none; stroke-linecap: butt; stroke-linejoin: miter; stroke-miterlimit: 10; fill: rgb(0,0,0); fill-rule: nonzero; opacity: 1;" transform=" matrix(1 0 0 1 0 0) " stroke-linecap="round" />
	<path d="M 56.368 23.71 H 33.632 c -0.552 0 -1 -0.448 -1 -1 c 0 -6.82 5.548 -12.368 12.368 -12.368 c 6.82 0 12.368 5.548 12.368 12.368 C 57.368 23.263 56.921 23.71 56.368 23.71 z M 34.68 21.71 H 55.32 c -0.505 -5.25 -4.94 -9.368 -10.32 -9.368 C 39.621 12.342 35.185 16.461 34.68 21.71 z" style="stroke: none; stroke-width: 1; stroke-dasharray: none; stroke-linecap: butt; stroke-linejoin: miter; stroke-miterlimit: 10; fill: rgb(0,0,0); fill-rule: nonzero; opacity: 1;" transform=" matrix(1 0 0 1 0 0) " stroke-linecap="round" />
	<path d="M 66.71 23.71 h -5.354 c -0.553 0 -1 -0.448 -1 -1 s 0.447 -1 1 -1 h 5.354 c 0.553 0 1 0.448 1 1 S 67.263 23.71 66.71 23.71 z" style="stroke: none; stroke-width: 1; stroke-dasharray: none; stroke-linecap: butt; stroke-linejoin: miter; stroke-miterlimit: 10; fill: rgb(0,0,0); fill-rule: nonzero; opacity: 1;" transform=" matrix(1 0 0 1 0 0) " stroke-linecap="round" />
	<path d="M 28.645 23.71 H 23.29 c -0.552 0 -1 -0.448 -1 -1 s 0.448 -1 1 -1 h 5.355 c 0.552 0 1 0.448 1 1 S 29.197 23.71 28.645 23.71 z" style="stroke: none; stroke-width: 1; stroke-dasharray: none; stroke-linecap: butt; stroke-linejoin: miter; stroke-miterlimit: 10; fill: rgb(0,0,0); fill-rule: nonzero; opacity: 1;" transform=" matrix(1 0 0 1 0 0) " stroke-linecap="round" />
	<path d="M 45 7.354 c -0.552 0 -1 -0.448 -1 -1 V 1 c 0 -0.552 0.448 -1 1 -1 s 1 0.448 1 1 v 5.354 C 46 6.907 45.552 7.354 45 7.354 z" style="stroke: none; stroke-width: 1; stroke-dasharray: none; stroke-linecap: butt; stroke-linejoin: miter; stroke-miterlimit: 10; fill: rgb(0,0,0); fill-rule: nonzero; opacity: 1;" transform=" matrix(1 0 0 1 0 0) " stroke-linecap="round" />
	<path d="M 56.565 12.145 c -0.256 0 -0.512 -0.098 -0.707 -0.293 c -0.391 -0.391 -0.391 -1.023 0 -1.414 l 3.786 -3.786 c 0.391 -0.391 1.023 -0.391 1.414 0 s 0.391 1.023 0 1.414 l -3.786 3.786 C 57.077 12.047 56.821 12.145 56.565 12.145 z" style="stroke: none; stroke-width: 1; stroke-dasharray: none; stroke-linecap: butt; stroke-linejoin: miter; stroke-miterlimit: 10; fill: rgb(0,0,0); fill-rule: nonzero; opacity: 1;" transform=" matrix(1 0 0 1 0 0) " stroke-linecap="round" />
	<path d="M 33.435 12.145 c -0.256 0 -0.512 -0.098 -0.707 -0.293 l -3.787 -3.786 c -0.391 -0.39 -0.391 -1.023 0 -1.414 s 1.023 -0.391 1.414 0 l 3.787 3.786 c 0.391 0.39 0.391 1.023 0 1.414 C 33.947 12.047 33.691 12.145 33.435 12.145 z" style="stroke: none; stroke-width: 1; stroke-dasharray: none; stroke-linecap: butt; stroke-linejoin: miter; stroke-miterlimit: 10; fill: rgb(0,0,0); fill-rule: nonzero; opacity: 1;" transform=" matrix(1 0 0 1 0 0) " stroke-linecap="round" />
	<path d="M 77.627 90 H 12.373 c -0.552 0 -1 -0.447 -1 -1 V 49.525 c 0 -0.553 0.448 -1 1 -1 h 65.254 c 0.553 0 1 0.447 1 1 V 89 C 78.627 89.553 78.18 90 77.627 90 z M 13.373 88 h 63.254 V 50.525 H 13.373 V 88 z" style="stroke: none; stroke-width: 1; stroke-dasharray: none; stroke-linecap: butt; stroke-linejoin: miter; stroke-miterlimit: 10; fill: rgb(0,0,0); fill-rule: nonzero; opacity: 1;" transform=" matrix(1 0 0 1 0 0) " stroke-linecap="round" />
	<path d="M 52.474 90 H 37.526 c -0.552 0 -1 -0.447 -1 -1 V 61.021 c 0 -0.553 0.448 -1 1 -1 h 14.948 c 0.553 0 1 0.447 1 1 V 89 C 53.474 89.553 53.026 90 52.474 90 z M 38.526 88 h 12.948 V 62.021 H 38.526 V 88 z" style="stroke: none; stroke-width: 1; stroke-dasharray: none; stroke-linecap: butt; stroke-linejoin: miter; stroke-miterlimit: 10; fill: rgb(0,0,0); fill-rule: nonzero; opacity: 1;" transform=" matrix(1 0 0 1 0 0) " stroke-linecap="round" />
	<path d="M 71.017 77.22 H 58.918 c -0.553 0 -1 -0.447 -1 -1 V 61.021 c 0 -0.553 0.447 -1 1 -1 h 12.099 c 0.553 0 1 0.447 1 1 V 76.22 C 72.017 76.772 71.569 77.22 71.017 77.22 z M 59.918 75.22 h 10.099 V 62.021 H 59.918 V 75.22 z" style="stroke: none; stroke-width: 1; stroke-dasharray: none; stroke-linecap: butt; stroke-linejoin: miter; stroke-miterlimit: 10; fill: rgb(0,0,0); fill-rule: nonzero; opacity: 1;" transform=" matrix(1 0 0 1 0 0) " stroke-linecap="round" />
	<path d="M 31.082 77.22 H 18.984 c -0.552 0 -1 -0.447 -1 -1 V 61.021 c 0 -0.553 0.448 -1 1 -1 h 12.098 c 0.552 0 1 0.447 1 1 V 76.22 C 32.082 76.772 31.634 77.22 31.082 77.22 z M 19.984 75.22 h 10.098 V 62.021 H 19.984 V 75.22 z" style="stroke: none; stroke-width: 1; stroke-dasharray: none; stroke-linecap: butt; stroke-linejoin: miter; stroke-miterlimit: 10; fill: rgb(0,0,0); fill-rule: nonzero; opacity: 1;" transform=" matrix(1 0 0 1 0 0) " stroke-linecap="round" />
	<path d="M 43.508 77.22 H 42.12 c -0.552 0 -1 -0.447 -1 -1 s 0.448 -1 1 -1 h 1.388 c 0.552 0 1 0.447 1 1 S 44.06 77.22 43.508 77.22 z" style="stroke: none; stroke-width: 1; stroke-dasharray: none; stroke-linecap: butt; stroke-linejoin: miter; stroke-miterlimit: 10; fill: rgb(0,0,0); fill-rule: nonzero; opacity: 1;" transform=" matrix(1 0 0 1 0 0) " stroke-linecap="round" />
	<path d="M 25.033 77.22 c -0.552 0 -1 -0.447 -1 -1 V 61.021 c 0 -0.553 0.448 -1 1 -1 s 1 0.447 1 1 V 76.22 C 26.033 76.772 25.585 77.22 25.033 77.22 z" style="stroke: none; stroke-width: 1; stroke-dasharray: none; stroke-linecap: butt; stroke-linejoin: miter; stroke-miterlimit: 10; fill: rgb(0,0,0); fill-rule: nonzero; opacity: 1;" transform=" matrix(1 0 0 1 0 0) " stroke-linecap="round" />
	<path d="M 31.082 69.62 H 18.984 c -0.552 0 -1 -0.447 -1 -1 s 0.448 -1 1 -1 h 12.098 c 0.552 0 1 0.447 1 1 S 31.634 69.62 31.082 69.62 z" style="stroke: none; stroke-width: 1; stroke-dasharray: none; stroke-linecap: butt; stroke-linejoin: miter; stroke-miterlimit: 10; fill: rgb(0,0,0); fill-rule: nonzero; opacity: 1;" transform=" matrix(1 0 0 1 0 0) " stroke-linecap="round" />
	<path d="M 71.017 69.62 H 58.918 c -0.553 0 -1 -0.447 -1 -1 s 0.447 -1 1 -1 h 12.099 c 0.553 0 1 0.447 1 1 S 71.569 69.62 71.017 69.62 z" style="stroke: none; stroke-width: 1; stroke-dasharray: none; stroke-linecap: butt; stroke-linejoin: miter; stroke-miterlimit: 10; fill: rgb(0,0,0); fill-rule: nonzero; opacity: 1;" transform=" matrix(1 0 0 1 0 0) " stroke-linecap="round" />
	<path d="M 64.967 77.22 c -0.553 0 -1 -0.447 -1 -1 V 61.021 c 0 -0.553 0.447 -1 1 -1 s 1 0.447 1 1 V 76.22 C 65.967 76.772 65.52 77.22 64.967 77.22 z" style="stroke: none; stroke-width: 1; stroke-dasharray: none; stroke-linecap: butt; stroke-linejoin: miter; stroke-miterlimit: 10; fill: rgb(0,0,0); fill-rule: nonzero; opacity: 1;" transform=" matrix(1 0 0 1 0 0) " stroke-linecap="round" />
</g>
</svg>